<?xml version="1.0" standalone="no"?>
<!DOCTYPE svg PUBLIC "-//W3C//DTD SVG 20010904//EN" "http://www.w3.org/TR/2001/REC-SVG-20010904/DTD/svg10.dtd">
<svg version="1.0" xmlns="http://www.w3.org/2000/svg" width="883.000000pt" height="653.000000pt"
    viewBox="0 0 883.000000 653.000000" preserveAspectRatio="xMidYMid meet">

    <g transform="translate(0.000000,653.000000) scale(0.100000,-0.100000)" fill="#000000" stroke="none">
        <path d="M3195 6424 c-48 -25 -72 -52 -152 -172 -42 -62 -92 -127 -112 -144
-65 -57 -164 -115 -328 -191 -90 -41 -193 -92 -230 -113 -158 -88 -323 -299
-323 -415 0 -18 -20 -63 -52 -116 -111 -185 -168 -390 -168 -606 l0 -125 30
11 c25 10 31 19 41 67 31 148 106 314 203 444 l59 80 20 -30 c61 -84 172 -158
272 -179 268 -56 597 -36 875 54 l87 28 19 -35 c31 -57 114 -131 189 -167 92
-45 199 -65 370 -70 98 -3 141 -8 146 -17 3 -7 14 -46 24 -86 14 -61 22 -75
45 -87 l28 -14 7 54 c13 107 -17 313 -67 453 -55 158 -143 306 -245 413 -42
45 -58 71 -79 135 -33 98 -60 153 -137 273 -33 52 -68 114 -79 138 -26 60 -40
151 -28 191 l9 33 -42 -5 c-23 -3 -94 -10 -157 -16 -63 -6 -130 -13 -147 -16
l-33 -5 -1 98 c-1 54 -4 110 -8 125 -6 27 -6 28 -36 12z" />
        <path d="M6490 5246 l0 -54 -47 -15 c-80 -25 -176 -59 -208 -72 -16 -8 -59
-23 -95 -35 -59 -20 -70 -29 -127 -99 l-63 -76 0 -152 0 -153 28 0 c15 0 42
-4 60 -9 l32 -10 0 178 0 178 38 7 c20 4 78 13 127 21 50 8 113 19 140 25 28
5 93 16 145 25 52 8 115 19 140 24 25 5 74 14 110 21 35 6 66 12 67 14 4 4
-87 66 -97 66 -6 0 -10 5 -10 10 0 6 -6 10 -14 10 -8 0 -16 3 -18 8 -1 4 -34
27 -73 52 -38 25 -81 55 -95 67 -14 13 -28 23 -32 23 -5 0 -8 -24 -8 -54z" />
        <path d="M7075 5095 c-33 -7 -89 -16 -125 -20 -36 -3 -73 -9 -82 -11 -17 -5
-18 -28 -18 -301 l0 -296 -52 7 c-29 4 -84 11 -123 16 -80 10 -285 36 -395 51
-41 6 -103 14 -137 18 l-62 7 57 -61 c31 -33 93 -100 136 -148 43 -48 90 -99
102 -113 l24 -25 0 65 c0 37 4 66 9 66 5 0 51 -13 101 -30 50 -16 98 -30 106
-30 8 0 33 -9 57 -19 23 -10 74 -27 114 -37 l72 -17 38 28 c54 41 61 47 88 73
13 12 28 22 32 22 4 0 24 14 43 31 19 17 45 38 58 47 l22 17 -2 336 -3 336
-60 -12z" />
        <path d="M6538 3965 l-3 -55 35 0 c46 1 70 20 70 57 0 39 -16 53 -61 53 l-37
0 -4 -55z m66 39 c23 -9 21 -61 -3 -74 -30 -16 -51 -2 -51 34 0 45 14 55 54
40z" />
        <path d="M6882 4008 c-15 -15 -16 -53 -2 -79 13 -23 64 -26 86 -5 17 18 18 68
2 84 -7 7 -26 12 -43 12 -17 0 -36 -5 -43 -12z m73 -19 c4 -5 4 -21 1 -35 -5
-17 -13 -24 -30 -24 -26 0 -40 23 -31 51 7 21 49 26 60 8z" />
        <path d="M6684 3982 c-36 -24 -17 -72 29 -71 29 1 30 2 8 8 -37 10 -38 31 -2
31 33 0 39 8 19 28 -13 13 -37 15 -54 4z m46 -12 c0 -5 -12 -10 -26 -10 -14 0
-23 4 -19 10 3 6 15 10 26 10 10 0 19 -4 19 -10z" />
        <path d="M6774 3955 c9 -21 16 -39 16 -41 0 -2 7 -4 15 -4 8 0 18 12 21 28 4
15 11 33 17 40 6 8 6 12 -3 12 -6 0 -17 -13 -23 -30 -14 -37 -25 -38 -29 -3
-2 14 -9 28 -16 31 -10 3 -10 -5 2 -33z" />
        <path d="M7000 3931 c0 -48 3 -61 15 -61 9 0 15 9 15 23 0 18 5 23 28 22 24 0
27 3 27 35 0 27 -5 36 -20 38 -16 3 -18 1 -7 -9 20 -21 15 -49 -9 -49 -16 0
-20 5 -17 27 2 20 -2 29 -14 31 -16 3 -18 -5 -18 -57z" />
        <path d="M7120 3974 c-11 -13 -10 -16 8 -21 29 -7 28 -30 0 -36 -13 -3 -7 -4
12 -4 40 2 55 31 21 42 -26 8 -27 22 -3 28 13 4 13 5 -4 6 -12 0 -27 -6 -34
-15z" />
        <path d="M2515 3024 c-225 -47 -316 -81 -440 -164 -268 -179 -421 -468 -497
-935 -19 -120 -17 -664 4 -820 11 -77 47 -234 102 -438 47 -175 86 -320 86
-322 0 -3 9 -5 20 -5 14 0 20 7 20 23 0 51 31 126 72 172 56 63 124 95 205 95
l62 0 3 563 c3 553 3 563 25 602 27 50 58 80 105 100 32 13 101 15 465 15 370
-1 424 -3 397 -14 -17 -8 -48 -36 -68 -63 -19 -26 -39 -52 -44 -58 -4 -5 -28
-39 -52 -75 -24 -36 -46 -67 -50 -70 -3 -3 -21 -26 -39 -52 l-32 -48 -279 0
c-267 0 -281 -1 -300 -20 -19 -19 -20 -33 -20 -203 l0 -183 117 -113 116 -113
41 41 41 41 50 -50 50 -49 90 87 c193 187 330 312 340 312 5 -1 30 -20 53 -44
l44 -42 -93 -85 c-51 -46 -118 -109 -149 -139 -31 -30 -85 -81 -118 -113 -34
-32 -62 -61 -62 -65 0 -4 20 -28 45 -52 l45 -44 -38 -39 -37 -39 115 -109 115
-108 196 -1 c191 0 196 1 217 23 21 22 22 32 24 287 l3 264 82 50 c205 126
279 176 293 198 12 19 16 80 20 323 l5 300 25 -45 25 -45 3 -561 3 -562 72 -4
c43 -2 88 -12 111 -23 81 -39 139 -122 152 -219 5 -36 11 -46 25 -46 11 0 19
2 19 5 0 2 40 152 89 332 84 307 91 339 105 498 18 196 21 551 5 693 -32 295
-124 565 -254 747 -191 268 -486 415 -831 415 l-101 0 -5 -49 c-7 -69 -46
-139 -103 -182 -107 -82 -237 -79 -350 6 -43 34 -95 135 -95 187 l0 38 -112
-1 c-62 -1 -122 -3 -133 -5z m1039 -1325 c66 -34 106 -97 106 -166 0 -49 -26
-108 -62 -138 -28 -25 -105 -55 -138 -55 -33 0 -110 30 -138 55 -61 52 -81
159 -41 224 62 101 169 133 273 80z" />
        <path d="M7368 2473 c-19 -22 -448 -1115 -448 -1141 0 -10 8 -26 18 -35 16
-15 47 -17 221 -17 111 0 210 4 220 10 10 5 37 58 62 125 24 63 46 115 49 115
3 0 75 -56 160 -125 134 -107 160 -124 192 -125 100 -1 102 21 18 236 -39 98
-70 179 -70 181 0 2 -53 3 -119 3 l-119 0 59 149 59 150 -91 233 c-50 128 -98
239 -107 246 -24 18 -86 15 -104 -5z" />
        <path d="M2366 335 c-3 -9 0 -18 7 -20 6 -3 309 -4 672 -3 579 3 660 5 660 18
0 13 -82 15 -666 18 -594 2 -667 0 -673 -13z" />
    </g>
</svg>